<svg width="64" height="64" viewBox="0 0 64 64" fill="none" xmlns="http://www.w3.org/2000/svg">
<path opacity="0.5" d="M32.4105 51.8854L28.5516 48.3913C25.2167 45.3918 22.4615 42.7912 20.2859 40.5894C18.1103 38.3877 16.3952 36.4093 15.1407 34.6542C13.8862 32.8992 13.0048 31.2718 12.4966 29.7721C11.9885 28.2723 11.7344 26.7088 11.7344 25.0814C11.7344 21.6048 12.8895 18.7014 15.1998 16.371C17.5097 14.041 20.3882 12.876 23.8351 12.876C25.4527 12.876 26.9926 13.1632 28.4549 13.7375C29.9168 14.3119 31.2353 15.1575 32.4105 16.2743C33.5856 15.1575 34.9042 14.3119 36.3661 13.7375C37.8284 13.1632 39.3683 12.876 40.9858 12.876C44.4598 12.876 47.361 14.041 49.6893 16.371C52.0177 18.7014 53.1819 21.6048 53.1819 25.0814C53.1819 26.6769 52.9357 28.2245 52.4434 29.7242C51.9512 31.224 51.0698 32.8434 49.7994 34.5824C48.529 36.3215 46.798 38.2999 44.6065 40.5176C42.4151 42.7353 39.636 45.3599 36.2694 48.3913L32.4105 51.8854ZM32.4105 43.7963C35.396 41.0521 37.8495 38.7387 39.771 36.856C41.6925 34.9733 43.2011 33.33 44.2969 31.926C45.3926 30.522 46.1469 29.291 46.5598 28.2332C46.9727 27.1754 47.1791 26.1251 47.1791 25.0823C47.1791 23.2948 46.5914 21.8186 45.4159 20.6539C44.2408 19.4892 42.7717 18.9069 41.0087 18.9069C39.6277 18.9069 38.3338 19.3297 37.1269 20.1753C35.92 21.0209 35.0784 22.0978 34.602 23.4061H30.2666C29.8052 22.0978 28.9594 21.0209 27.7293 20.1753C26.4989 19.3297 25.2051 18.9069 23.848 18.9069C22.1158 18.9069 20.6721 19.4892 19.517 20.6539C18.3622 21.8186 17.7848 23.2944 17.7848 25.0814C17.7848 26.1586 17.9982 27.2434 18.425 28.3357C18.8519 29.4283 19.6142 30.6748 20.7118 32.0753C21.8095 33.4755 23.3031 35.1089 25.1929 36.9757C27.0827 38.8424 29.4885 41.1159 32.4105 43.7963Z" fill="url(#paint0_linear_2299_1610)"/>
<path opacity="0.5" d="M32.279 56.7618L27.5121 52.3245C23.3926 48.5154 19.9891 45.2128 17.3016 42.4167C14.6141 39.6206 12.615 37.8856 11.0652 35.6568C9.5155 33.4281 8.42677 31.3614 7.79903 29.4568C7.17129 27.5523 6.85742 25.5666 6.85742 23.5C6.85742 19.085 8.28435 15.3979 11.1382 12.4385C13.9917 9.47949 17.5474 8 21.8054 8C23.8036 8 25.7058 8.36471 27.5121 9.09412C29.3181 9.82353 30.9469 10.8974 32.3985 12.3157C33.8501 10.8974 35.4789 9.82353 37.2848 9.09412C39.0912 8.36471 40.9934 8 42.9916 8C47.2829 8 50.8667 9.47949 53.7429 12.4385C56.6192 15.3979 58.0573 19.085 58.0573 23.5C58.0573 25.5261 57.7532 27.4915 57.1451 29.3961C56.537 31.3006 55.4482 33.3572 53.8789 35.5657C52.3096 37.7742 50.0519 39.5092 47.3447 42.3255C44.6376 45.1418 41.2047 48.4748 37.0459 52.3245L32.279 56.7618ZM32.279 45.7904C35.967 42.3054 38.617 39.6479 40.9907 37.2571C43.3643 34.8662 44.5774 34.1648 45.931 32.3818C47.2846 30.5988 46.5716 30.0671 47.0817 28.7237C47.5917 27.3804 47.0817 26.2719 47.0817 24.9476C47.0817 22.6775 47.383 22.5157 45.931 21.0366C44.4793 19.5575 43.6687 18.4293 41.4909 18.4293C39.785 18.4293 39.6568 19.9628 38.1659 21.0366C36.675 22.1105 35.6941 19.7111 35.1056 21.3725H29.7502C29.1802 19.7111 27.8816 20.0453 26.3621 18.9714C24.8422 17.8975 24.7022 18.4293 23.0258 18.4293C20.886 18.4293 20.4748 21.1494 19.0479 22.6285C17.6213 24.1076 17.9472 24.0164 17.9472 26.2857C17.9472 27.6537 17.4199 27.3367 17.9472 28.7237C18.4745 30.1113 17.6919 30.6032 19.0479 32.3818C20.4038 34.1599 21.5896 36.0823 23.924 38.4529C26.2584 40.8235 28.6695 42.3864 32.279 45.7904Z" fill="url(#paint1_linear_2299_1610)"/>
<path d="M32.4205 47.0095L29.4696 44.3889C26.9194 42.1393 24.8125 40.1888 23.1488 38.5375C21.4851 36.8862 20.1736 35.4024 19.2142 34.0861C18.2549 32.7699 17.5809 31.5493 17.1923 30.4245C16.8037 29.2997 16.6094 28.127 16.6094 26.9065C16.6094 24.2991 17.4927 22.1215 19.2594 20.3737C21.0258 18.6262 23.227 17.7524 25.8629 17.7524C27.0999 17.7524 28.2774 17.9678 29.3956 18.3986C30.5136 18.8294 31.5219 19.4636 32.4205 20.3012C33.3192 19.4636 34.3274 18.8294 35.4454 18.3986C36.5636 17.9678 37.7412 17.7524 38.9781 17.7524C41.6347 17.7524 43.8532 18.6262 45.6337 20.3737C47.4143 22.1215 48.3045 24.2991 48.3045 26.9065C48.3045 28.1031 48.1163 29.2638 47.7398 30.3886C47.3634 31.5134 46.6894 32.728 45.7179 34.0323C44.7464 35.3366 43.4227 36.8204 41.7469 38.4837C40.0711 40.147 37.9459 42.1154 35.3714 44.3889L32.4205 47.0095ZM32.4205 40.9427C34.7035 38.8845 36.5797 37.1495 38.0491 35.7375C39.5185 34.3255 40.6722 33.093 41.5101 32.0399C42.348 30.9869 42.9248 30.0637 43.2406 29.2704C43.5563 28.477 43.7142 27.6893 43.7142 26.9072C43.7142 25.5665 43.2647 24.4594 42.3659 23.5859C41.4672 22.7124 40.3438 22.2756 38.9956 22.2756C37.9396 22.2756 36.9501 22.5927 36.0272 23.2269C35.1043 23.8611 34.4607 24.6688 34.0964 25.6501H30.7811C30.4282 24.6688 29.7814 23.8611 28.8408 23.2269C27.8999 22.5927 26.9105 22.2756 25.8727 22.2756C24.5481 22.2756 23.4441 22.7124 22.5608 23.5859C21.6777 24.4594 21.2361 25.5663 21.2361 26.9065C21.2361 27.7144 21.3993 28.528 21.7258 29.3472C22.0522 30.1666 22.6351 31.1016 23.4745 32.1519C24.3138 33.2021 25.4561 34.4272 26.9012 35.8272C28.3463 37.2272 30.1861 38.9324 32.4205 40.9427Z" fill="url(#paint2_linear_2299_1610)"/>
<defs>
<linearGradient id="paint0_linear_2299_1610" x1="32.4581" y1="1.35047" x2="32.4066" y2="51.8853" gradientUnits="userSpaceOnUse">
<stop stop-color="#FFBFBF"/>
<stop offset="1" stop-color="#FF5151"/>
</linearGradient>
<linearGradient id="paint1_linear_2299_1610" x1="32.4573" y1="-6.40689" x2="32.3922" y2="56.7617" gradientUnits="userSpaceOnUse">
<stop stop-color="#FFBFBF"/>
<stop offset="1" stop-color="#FF5151"/>
</linearGradient>
<linearGradient id="paint2_linear_2299_1610" x1="32.4569" y1="9.10831" x2="32.419" y2="47.0095" gradientUnits="userSpaceOnUse">
<stop stop-color="#FFBFBF"/>
<stop offset="1" stop-color="#FF5151"/>
</linearGradient>
</defs>
</svg>
