<svg width="21" height="20" viewBox="0 0 21 20" fill="none" xmlns="http://www.w3.org/2000/svg">
<path opacity="0.5" d="M10.4805 18L8.8977 16.5669C7.52988 15.3366 6.39981 14.2699 5.50747 13.3669C4.61513 12.4638 3.91169 11.6524 3.39713 10.9325C2.88257 10.2127 2.52107 9.54519 2.31264 8.93006C2.10421 8.31493 2 7.67362 2 7.00613C2 5.5802 2.47379 4.38933 3.42136 3.43352C4.3688 2.47784 5.54942 2 6.96322 2C7.62667 2 8.25828 2.11779 8.85803 2.35337C9.45766 2.58896 9.99847 2.93579 10.4805 3.39386C10.9625 2.93579 11.5033 2.58896 12.1029 2.35337C12.7026 2.11779 13.3342 2 13.9977 2C15.4226 2 16.6125 2.47784 17.5675 3.43352C18.5225 4.38933 19 5.5802 19 7.00613C19 7.66053 18.899 8.2953 18.6971 8.91043C18.4952 9.52556 18.1337 10.1898 17.6126 10.9031C17.0916 11.6164 16.3816 12.4278 15.4828 13.3374C14.5839 14.247 13.4441 15.3235 12.0632 16.5669L10.4805 18ZM10.4805 14.6822C11.705 13.5566 12.7113 12.6078 13.4994 11.8356C14.2875 11.0634 14.9063 10.3894 15.3557 9.8135C15.8052 9.23763 16.1146 8.73276 16.2839 8.2989C16.4533 7.86503 16.5379 7.43424 16.5379 7.00653C16.5379 6.27334 16.2969 5.66789 15.8147 5.19018C15.3328 4.71247 14.7302 4.47362 14.0071 4.47362C13.4407 4.47362 12.91 4.64703 12.4149 4.99387C11.9199 5.3407 11.5747 5.78241 11.3793 6.31902H9.60115C9.41187 5.78241 9.06497 5.3407 8.56044 4.99387C8.05578 4.64703 7.52513 4.47362 6.96849 4.47362C6.25801 4.47362 5.66588 4.71247 5.19209 5.19018C4.71844 5.66789 4.48161 6.27321 4.48161 7.00613C4.48161 7.44798 4.56915 7.89291 4.74423 8.34091C4.91931 8.78904 5.23195 9.30032 5.68216 9.87475C6.13237 10.449 6.74502 11.119 7.52011 11.8847C8.29521 12.6503 9.28199 13.5828 10.4805 14.6822Z" fill="url(#paint0_linear_2280_1071)"/>
<path opacity="0.5" d="M10.4269 20L8.47169 18.18C6.78203 16.6177 5.38606 15.2631 4.28376 14.1163C3.18146 12.9694 2.36149 12.2578 1.72586 11.3437C1.09023 10.4295 0.643678 9.58186 0.386207 8.80068C0.128736 8.01951 0 7.20509 0 6.35743C0 4.5466 0.585264 3.03428 1.75579 1.82047C2.92616 0.606824 4.38457 0 6.13103 0C6.9506 0 7.73082 0.149587 8.47169 0.44876C9.2124 0.747933 9.88046 1.18838 10.4759 1.77011C11.0713 1.18838 11.7393 0.747933 12.48 0.44876C13.2209 0.149587 14.0011 0 14.8207 0C16.5808 0 18.0507 0.606824 19.2304 1.82047C20.4101 3.03428 21 4.5466 21 6.35743C21 7.18847 20.8753 7.99458 20.6259 8.77575C20.3764 9.55693 19.9299 10.4004 19.2862 11.3063C18.6425 12.2121 17.7165 12.9237 16.6062 14.0789C15.4958 15.234 14.0878 16.6011 12.382 18.18L10.4269 20ZM10.4269 15.5C11.9395 14.0706 13.0264 12.9806 14 12C14.9736 11.0194 15.4711 10.7317 16.0263 10.0004C16.5815 9.26905 16.2891 9.05098 16.4983 8.5C16.7075 7.94902 16.4983 7.49435 16.4983 6.95119C16.4983 6.02009 16.6219 5.95372 16.0263 5.34707C15.4309 4.74041 15.0984 4.27765 14.2052 4.27765C13.5055 4.27765 13.4529 4.90662 12.8414 5.34707C12.2299 5.78752 11.8276 4.80339 11.5862 5.48484H9.38966C9.15584 4.80339 8.62324 4.94045 8 4.5C7.3766 4.05955 7.31919 4.27765 6.63158 4.27765C5.75392 4.27765 5.58526 5.39334 5 6C4.4149 6.60666 4.54855 6.56924 4.54855 7.5C4.54855 8.06112 4.33228 7.93107 4.54855 8.5C4.76483 9.06909 4.44386 9.27088 5 10.0004C5.55614 10.7297 6.04253 11.5182 7 12.4905C7.95747 13.4628 8.9464 14.1039 10.4269 15.5Z" fill="url(#paint1_linear_2280_1071)"/>
<path d="M10.4851 16L9.27471 14.9252C8.22874 14.0025 7.36456 13.2025 6.68218 12.5252C5.99981 11.8479 5.46188 11.2393 5.06839 10.6994C4.6749 10.1595 4.39847 9.6589 4.23908 9.19755C4.07969 8.7362 4 8.25521 4 7.7546C4 6.68515 4.36231 5.792 5.08692 5.07514C5.81143 4.35838 6.71426 4 7.7954 4C8.30275 4 8.78574 4.08834 9.24438 4.26503C9.70292 4.44172 10.1165 4.70184 10.4851 5.0454C10.8536 4.70184 11.2672 4.44172 11.7257 4.26503C12.1844 4.08834 12.6674 4 13.1747 4C14.2643 4 15.1743 4.35838 15.9046 5.07514C16.6349 5.792 17 6.68515 17 7.7546C17 8.2454 16.9228 8.72147 16.7684 9.18282C16.614 9.64417 16.3375 10.1423 15.9391 10.6773C15.5406 11.2123 14.9977 11.8209 14.3103 12.5031C13.623 13.1853 12.7513 13.9926 11.6954 14.9252L10.4851 16ZM10.4851 13.5117C11.4215 12.6675 12.191 11.9558 12.7937 11.3767C13.3964 10.7975 13.8695 10.292 14.2132 9.86012C14.5569 9.42822 14.7935 9.04957 14.923 8.72417C15.0525 8.39877 15.1172 8.07568 15.1172 7.7549C15.1172 7.20501 14.9329 6.75092 14.5642 6.39264C14.1956 6.03436 13.7349 5.85521 13.1819 5.85521C12.7488 5.85521 12.3429 5.98528 11.9644 6.2454C11.5858 6.50552 11.3218 6.83681 11.1724 7.23926H9.81264C9.6679 6.83681 9.40262 6.50552 9.0168 6.2454C8.63089 5.98528 8.2251 5.85521 7.79944 5.85521C7.25613 5.85521 6.80332 6.03436 6.44101 6.39264C6.0788 6.75092 5.8977 7.20491 5.8977 7.7546C5.8977 8.08599 5.96464 8.41968 6.09853 8.75568C6.23241 9.09178 6.47149 9.47524 6.81577 9.90606C7.16005 10.3368 7.62854 10.8393 8.22126 11.4135C8.81398 11.9877 9.56858 12.6871 10.4851 13.5117Z" fill="url(#paint2_linear_2280_1071)"/>
<defs>
<linearGradient id="paint0_linear_2280_1071" x1="10.5" y1="-2.72727" x2="10.4789" y2="18" gradientUnits="userSpaceOnUse">
<stop stop-color="#FFBFBF"/>
<stop offset="1" stop-color="#FF5151"/>
</linearGradient>
<linearGradient id="paint1_linear_2280_1071" x1="10.5" y1="-5.90909" x2="10.4733" y2="20" gradientUnits="userSpaceOnUse">
<stop stop-color="#FFBFBF"/>
<stop offset="1" stop-color="#FF5151"/>
</linearGradient>
<linearGradient id="paint2_linear_2280_1071" x1="10.5" y1="0.454545" x2="10.4845" y2="16" gradientUnits="userSpaceOnUse">
<stop stop-color="#FFBFBF"/>
<stop offset="1" stop-color="#FF5151"/>
</linearGradient>
</defs>
</svg>
